# xmcd
#
# Track frame offsets: 
#        150
#        15882
#        39719
#        63641
#        81237
#        116244
#        140712
#        165757
#        195067
#        213419
#        251468
#
# Disc length: 3640 seconds
#
# Revision: 2
# Processed by: cddbd v1.5.2PL0 Copyright (c) Steve Scherf et al.
# Submitted via: ExactAudioCopy v0.95b4
#
DISCID=8c0e360b
DTITLE=Jacintha - Autumn Leaves the songs of Johnny Mercer
DYEAR=1999
DGENRE=Jazz
TTITLE0=And The Angels Sing
TTITLE1=Skylark
TTITLE2=One For My Baby
TTITLE3=Midnight Sun
TTITLE4=Autumn Leaves
TTITLE5=Days Of Wine and Roses
TTITLE6=I Remember You
TTITLE7=Trav'lin' Light
TTITLE8=Something's Gotta Give
TTITLE9=Moon River
TTITLE10=Here's To Life(soundtrak mix)
EXTD=
EXTT0=
EXTT1=
EXTT2=
EXTT3=
EXTT4=
EXTT5=
EXTT6=
EXTT7=
EXTT8=
EXTT9=
EXTT10=
PLAYORDER=
